<svg data-v-0dd9719b="" version="1.0" xmlns="http://www.w3.org/2000/svg" xmlns:xlink="http://www.w3.org/1999/xlink" width="100%" height="100%" viewBox="0 0 340.000000 250.000000" preserveAspectRatio="xMidYMid meet" color-interpolation-filters="sRGB" style="margin: auto;"> <rect data-v-0dd9719b="" x="0" y="0" width="100%" height="100%" fill="#fff" fill-opacity="1" class="background"></rect> <rect data-v-0dd9719b="" x="0" y="0" width="100%" height="100%" fill="url(#watermark)" fill-opacity="1" class="watermarklayer"></rect> <g data-v-0dd9719b="" fill="#f29716" class="icon-text-wrapper icon-svg-group iconsvg" transform="translate(72.64479064941406,90.0312271118164)"><g class="iconsvg-imagesvg" transform="translate(0,0.26984405517578125)"><g><rect fill="#f29716" fill-opacity="0" stroke-width="2" x="0" y="0" width="59.99999999999999" height="69.3978579194522" class="image-rect"></rect> <svg x="0" y="0" width="59.99999999999999" height="69.3978579194522" filtersec="colorsb9581683846" class="image-svg-svg primary" style="overflow: visible;"><svg version="1.1" id="图层_1" xmlns="http://www.w3.org/2000/svg" xmlns:xlink="http://www.w3.org/1999/xlink" x="0px" y="0px" viewBox="3.5199999809265137 0 102.9800033569336 119.11000061035156" enable-background="new 0 0 109 120" xml:space="preserve">
<polygon fill="#F29716" points="3.52,31.23 3.52,89.38 55.01,119.11 "></polygon>
<polygon fill="#FBDF5E" points="55.01,87.88 55.01,29.73 3.52,0 "></polygon>
<polygon fill="#00579D" points="55.01,87.01 55.01,30.64 106.5,1.83 "></polygon>
<polygon fill="#66BC8B" points="106.5,32.1 106.5,88.46 55.01,117.28 "></polygon>
</svg></svg> <!----></g></g> <g transform="translate(67,0)"><g data-gra="path-name" fill-rule="" class="tp-name iconsvg-namesvg"><g transform="scale(1)"><g><path d="M28.2-21.15L28.2-21.15 24.26-21.15Q22.79-27.21 15.9-27.38L15.9-27.38Q6.39-26.89 6.07-15.25L6.07-15.25Q6.07-2.79 16.07-2.79L16.07-2.79Q22.95-2.95 24.59-11.15L24.59-11.15 28.52-11.15Q26.72 0.16 15.25 0.49L15.25 0.49Q2.13 0 1.8-15.08L1.8-15.08Q2.46-30.16 15.9-30.82L15.9-30.82Q26.56-30.49 28.2-21.15ZM37.38-17.7L53.11-17.7 53.11-30 57.21-30 57.21 0 53.11 0 53.11-13.93 37.38-13.93 37.38 0 33.28 0 33.28-30 37.38-30 37.38-17.7ZM64.1-30L68.2-30 68.2 0 64.1 0 64.1-30ZM80-30L95.08-5.74 95.08-30 99.02-30 99.02 0 94.43 0 79.18-24.26 79.02-24.26 79.02 0 75.08 0 75.08-30 80-30ZM125.08 0L122.13-8.69 110-8.69 106.89 0 102.79 0 114.1-30 118.69-30 129.51 0 125.08 0ZM116.07-25.57L111.31-12.3 120.66-12.3 116.23-25.57 116.07-25.57Z" transform="translate(-1.7999999523162842, 30.81999969482422)"></path></g> <!----> <!----> <!----> <!----> <!----> <!----> <g data-gra="path-name-1" fill="#f29716" transform="translate(0,34.30999946594238)"><g transform="scale(1.03931)"><path d="M13.67-17.23L8.24-12.18 8.24 0 3.56 0 3.56-34.28 8.24-34.28 8.24-17.61 24.91-34.28 31.47-34.28 17.05-20.42 31.84 0 25.66 0 13.67-17.23ZM40.65-4.12L61.25-4.12 61.25 0 35.97 0 35.97-34.28 60.88-34.28 60.88-30.35 40.65-30.35 40.65-19.67 59.38-19.67 59.38-15.55 40.65-15.55 40.65-4.12ZM72.49-4.12L93.1-4.12 93.1 0 67.81 0 67.81-34.28 92.72-34.28 92.72-30.35 72.49-30.35 72.49-19.67 91.22-19.67 91.22-15.55 72.49-15.55 72.49-4.12ZM104.71-34.28L121.95-6.56 121.95-34.28 126.44-34.28 126.44 0 121.2 0 103.78-27.72 103.59-27.72 103.59 0 99.09 0 99.09-34.28 104.71-34.28Z" transform="translate(-3.559999942779541, 34.279998779296875)"></path></g></g></g></g> <!----></g></g><defs v-gra="od"></defs></svg>